<?xml version="1.0" encoding="UTF-8"?>
<svg xmlns="http://www.w3.org/2000/svg" version="1.1" viewBox="0 0 413 103">
  <defs>
    <style>
      .cls-1 {
        fill: #ffd10a;
      }

      .cls-2 {
        fill: #241f39;
      }
    </style>
  </defs>
  <!-- Generator: Adobe Illustrator 28.7.1, SVG Export Plug-In . SVG Version: 1.2.0 Build 142)  -->
  <g>
    <g id="Layer_1">
      <g>
        <polygon class="cls-2" points="78.34 77.42 78.34 100.65 1.98 100.65 1.98 77.42 62.37 77.42 60.96 78.99 67.45 84.81 74.09 77.42 78.34 77.42"/>
        <polygon class="cls-2" points="78.04 25.38 78.04 3.25 1.98 3.25 1.98 25.38 27.44 25.38 78.04 25.38"/>
        <polygon class="cls-2" points="64.36 61.56 64.36 39.29 26.71 39.29 1.98 39.29 1.98 61.56 26.71 61.56 64.36 61.56"/>
        <path class="cls-1" d="M90.68.5c-22.22,0-44.11,12.99-49.34,38.8-.76,3.78-1.18,7.82-1.18,12.15,0,3.56.26,6.93.77,10.12.94,5.95,2.72,11.24,5.16,15.86,6.53,12.4,17.82,20.12,30.67,23.23,4.36,1.06,8.9,1.6,13.5,1.6,29.67,0,50.38-20.86,50.38-50.81C140.64,17.57,115.74.5,90.68.5h0ZM90.41,77.42c-4.79,0-9.27-1.3-13.13-3.55l-3.19,3.55-6.64,7.39-6.49-5.82,1.4-1.57,8.23-9.15c-3.88-4.55-6.23-10.44-6.23-16.89,0-14.39,11.66-26.05,26.05-26.05s26.04,11.66,26.04,26.05c0,14.38-11.66,26.04-26.04,26.04h0Z"/>
        <path class="cls-2" d="M163.67,28.3c-1.29,1.18-2.95,1.77-4.96,1.77-2.49,0-4.45-.8-5.87-2.4-1.42-1.6-2.14-3.8-2.14-6.6,0-3.03.81-5.35,2.43-6.99,1.41-1.42,3.2-2.14,5.38-2.14,2.91,0,5.04.96,6.39,2.87.74,1.07,1.14,2.15,1.2,3.23h-3.62c-.24-.83-.53-1.46-.9-1.88-.66-.75-1.63-1.13-2.93-1.13s-2.35.53-3.11,1.6c-.76,1.06-1.14,2.56-1.14,4.51s.4,3.39,1.21,4.36,1.83,1.45,3.06,1.45,2.23-.42,2.9-1.25c.37-.45.67-1.11.92-2.01h3.59c-.32,1.89-1.12,3.42-2.41,4.6h0Z"/>
        <polygon class="cls-2" points="182.68 22.03 174.27 22.03 174.27 26.48 183.86 26.48 183.86 29.59 170.74 29.59 170.74 12.27 183.43 12.27 183.43 15.35 174.27 15.35 174.27 19.02 182.68 19.02 182.68 22.03"/>
        <path class="cls-2" d="M195.94,29.59h-7.46V12.27h7.46c1.07.01,1.96.14,2.68.38,1.21.4,2.19,1.13,2.95,2.19.6.86,1.02,1.79,1.23,2.79s.33,1.96.33,2.87c0,2.3-.46,4.25-1.38,5.85-1.25,2.16-3.18,3.23-5.8,3.23h0ZM198.63,16.7c-.55-.94-1.65-1.41-3.3-1.41h-3.34v11.3h3.34c1.71,0,2.9-.84,3.57-2.52.37-.92.55-2.02.55-3.3,0-1.77-.28-3.12-.82-4.07h0Z"/>
        <path class="cls-2" d="M210.97,29.59h-3.37V12.27h5.26l3.15,13.62,3.12-13.62h5.21v17.31h-3.37v-11.71c0-.34,0-.81.01-1.42,0-.61.01-1.07.01-1.4l-3.28,14.53h-3.51l-3.26-14.53c0,.33,0,.8.01,1.4,0,.61.01,1.08.01,1.42v11.71h0Z"/>
        <path class="cls-2" d="M237.16,30.08c-2.48,0-4.36-.67-5.67-2.02-1.75-1.65-2.63-4.03-2.63-7.14s.88-5.55,2.63-7.14c1.31-1.34,3.2-2.02,5.67-2.02s4.36.67,5.67,2.02c1.75,1.59,2.62,3.97,2.62,7.14s-.87,5.49-2.62,7.14c-1.31,1.34-3.2,2.02-5.67,2.02h0ZM240.58,25.42c.84-1.05,1.26-2.56,1.26-4.51s-.42-3.44-1.27-4.51c-.84-1.06-1.98-1.6-3.41-1.6s-2.58.53-3.43,1.59c-.86,1.05-1.28,2.56-1.28,4.51s.43,3.45,1.28,4.51c.86,1.05,2,1.59,3.43,1.59s2.58-.53,3.42-1.58h0Z"/>
        <path class="cls-2" d="M163.66,42.46c1.19,1.15,1.85,2.46,1.98,3.92h-2.28c-.26-1.11-.76-1.99-1.52-2.64-.76-.65-1.82-.98-3.19-.98-1.67,0-3.02.6-4.05,1.79s-1.54,3.03-1.54,5.5c0,2.02.46,3.66,1.39,4.92s2.31,1.89,4.15,1.89c1.69,0,2.98-.66,3.87-1.98.47-.7.82-1.61,1.05-2.75h2.28c-.2,1.82-.87,3.34-2,4.57-1.36,1.48-3.18,2.22-5.48,2.22-1.98,0-3.64-.61-5-1.82-1.77-1.61-2.66-4.09-2.66-7.44,0-2.54.67-4.63,2-6.27,1.44-1.77,3.43-2.66,5.96-2.66,2.17,0,3.85.58,5.04,1.73h0Z"/>
        <path class="cls-2" d="M176.31,46.23c.83.42,1.46.96,1.9,1.63.42.63.7,1.38.84,2.22.13.58.18,1.5.18,2.77h-9.15c.04,1.28.34,2.31.9,3.08s1.42,1.16,2.6,1.16c1.09,0,1.97-.37,2.62-1.09.36-.43.63-.92.78-1.48h2.08c-.05.46-.24.98-.55,1.55-.31.57-.65,1.03-1.03,1.39-.64.63-1.43,1.05-2.37,1.27-.51.13-1.07.19-1.71.19-1.56,0-2.87-.57-3.95-1.71s-1.62-2.74-1.62-4.79.55-3.66,1.63-4.92,2.51-1.89,4.27-1.89c.89,0,1.75.2,2.58.62h0ZM177.07,51.17c-.09-.92-.28-1.65-.59-2.19-.57-1.02-1.54-1.53-2.87-1.53-.96,0-1.77.35-2.43,1.05-.65.7-1,1.6-1.03,2.68h6.93Z"/>
        <path class="cls-2" d="M181.92,45.88h2.01v1.79c.59-.74,1.23-1.27,1.89-1.59s1.4-.48,2.22-.48c1.79,0,2.99.63,3.62,1.87.34.68.51,1.65.51,2.93v8.07h-2.15v-7.93c0-.77-.11-1.38-.34-1.86-.38-.78-1.05-1.17-2.04-1.17-.5,0-.92.05-1.23.15-.58.17-1.09.52-1.53,1.03-.36.42-.58.84-.69,1.29s-.16,1.07-.16,1.9v6.59h-2.12v-12.58h0Z"/>
        <path class="cls-2" d="M195.72,42.37h2.14v3.51h2.01v1.73h-2.01v8.21c0,.44.15.73.45.88.16.09.44.13.82.13.1,0,.21,0,.33,0s.26-.02.41-.04v1.68c-.24.07-.49.12-.76.15-.26.03-.55.05-.85.05-.99,0-1.65-.25-2.01-.76-.36-.51-.53-1.16-.53-1.97v-8.33h-1.71v-1.73h1.71v-3.51h0Z"/>
        <path class="cls-2" d="M202.04,45.88h2.01v2.18c.16-.42.57-.94,1.21-1.54.64-.61,1.38-.91,2.22-.91.04,0,.11,0,.2.01.09,0,.26.03.48.05v2.23c-.13-.03-.24-.04-.35-.05-.11,0-.22-.01-.35-.01-1.06,0-1.89.34-2.45,1.03-.57.69-.86,1.48-.86,2.37v7.24h-2.12v-12.59h0Z"/>
        <path class="cls-2" d="M216.74,50.85c.49-.07.81-.26.98-.61.09-.19.14-.46.14-.82,0-.73-.26-1.25-.76-1.58-.51-.32-1.25-.49-2.19-.49-1.1,0-1.89.3-2.35.9-.26.33-.43.82-.51,1.48h-1.97c.04-1.56.54-2.64,1.51-3.24s2.09-.91,3.36-.91c1.48,0,2.68.28,3.61.84.92.57,1.37,1.44,1.37,2.63v7.25c0,.22.05.4.14.53.09.13.28.2.57.2.09,0,.2,0,.32-.02.12-.01.24-.03.38-.05v1.56c-.33.09-.58.15-.75.18-.17.03-.41.03-.71.03-.73,0-1.26-.26-1.59-.78-.17-.28-.3-.66-.36-1.16-.43.57-1.05,1.05-1.86,1.47s-1.69.63-2.67.63c-1.17,0-2.12-.36-2.86-1.06-.74-.71-1.11-1.6-1.11-2.66,0-1.17.36-2.07,1.09-2.71.73-.64,1.68-1.03,2.87-1.19l3.37-.42h0ZM212.29,56.56c.45.36.98.53,1.59.53.74,0,1.46-.17,2.16-.51,1.17-.57,1.76-1.5,1.76-2.8v-1.7c-.26.16-.59.3-1,.42s-.8.18-1.19.24l-1.28.16c-.76.1-1.34.26-1.73.48-.65.37-.98.96-.98,1.76,0,.6.22,1.08.67,1.43h0Z"/>
        <polygon class="cls-2" points="223.44 41.2 225.55 41.2 225.55 58.46 223.44 58.46 223.44 41.2"/>
        <polygon class="cls-2" points="235.92 41.2 248.44 41.2 248.44 43.32 238.2 43.32 238.2 48.56 247.66 48.56 247.66 50.56 238.2 50.56 238.2 56.41 248.61 56.41 248.61 58.46 235.92 58.46 235.92 41.2"/>
        <path class="cls-2" d="M253.57,45.88v8.35c0,.65.1,1.17.3,1.58.36.75,1.05,1.13,2.05,1.13,1.43,0,2.41-.66,2.93-1.97.28-.71.42-1.67.42-2.9v-6.18h2.12v12.58h-2l.03-1.86c-.27.47-.61.88-1,1.21-.79.66-1.75.99-2.88.99-1.76,0-2.96-.6-3.6-1.8-.34-.64-.52-1.5-.52-2.57v-8.56h2.16Z"/>
        <path class="cls-2" d="M264.9,45.88h2.01v2.18c.16-.42.57-.94,1.21-1.54.65-.61,1.38-.91,2.22-.91.04,0,.11,0,.2.01.09,0,.26.03.48.05v2.23c-.13-.03-.24-.04-.35-.05-.11,0-.22-.01-.34-.01-1.07,0-1.89.34-2.46,1.03-.57.69-.86,1.48-.86,2.37v7.24h-2.12v-12.59h0Z"/>
        <path class="cls-2" d="M281.97,47.13c1.11,1.08,1.67,2.67,1.67,4.77s-.49,3.7-1.47,5.02c-.98,1.32-2.5,1.98-4.56,1.98-1.72,0-3.08-.59-4.09-1.75s-1.52-2.74-1.52-4.71c0-2.12.53-3.8,1.6-5.05,1.07-1.25,2.5-1.88,4.29-1.88,1.61,0,2.97.55,4.09,1.62h0ZM280.65,55.5c.51-1.06.77-2.24.77-3.54,0-1.17-.18-2.13-.56-2.86-.59-1.16-1.6-1.74-3.05-1.74-1.28,0-2.21.49-2.79,1.48-.58.99-.87,2.18-.87,3.57s.29,2.45.87,3.34,1.5,1.34,2.77,1.34c1.39,0,2.34-.52,2.85-1.58h0Z"/>
        <path class="cls-2" d="M286.05,45.94h2.07v1.67c.42-.57.89-1.02,1.39-1.32.71-.47,1.56-.71,2.52-.71,1.43,0,2.64.55,3.64,1.64s1.5,2.65,1.5,4.68c0,2.74-.72,4.7-2.16,5.87-.91.74-1.97,1.11-3.18,1.11-.95,0-1.75-.21-2.39-.63-.38-.24-.8-.64-1.26-1.21v6.43h-2.12v-17.53h0ZM294.01,55.8c.65-.83.98-2.06.98-3.7,0-1-.15-1.87-.44-2.58-.55-1.38-1.56-2.08-3.02-2.08s-2.48.73-3.02,2.19c-.29.78-.44,1.78-.44,2.99,0,.97.15,1.8.44,2.48.55,1.3,1.56,1.95,3.02,1.95.99,0,1.81-.42,2.47-1.25h0Z"/>
        <path class="cls-2" d="M307.38,46.23c.83.42,1.47.96,1.9,1.63.42.63.7,1.38.84,2.22.13.58.18,1.5.18,2.77h-9.15c.04,1.28.34,2.31.9,3.08.56.77,1.42,1.16,2.6,1.16,1.09,0,1.97-.37,2.62-1.09.36-.43.63-.92.78-1.48h2.08c-.05.46-.24.98-.55,1.55-.31.57-.65,1.03-1.03,1.39-.64.63-1.42,1.05-2.37,1.27-.51.13-1.07.19-1.71.19-1.56,0-2.87-.57-3.95-1.71s-1.62-2.74-1.62-4.79.55-3.66,1.63-4.92c1.09-1.26,2.51-1.89,4.27-1.89.9,0,1.75.2,2.59.62h0ZM308.14,51.17c-.09-.92-.28-1.65-.59-2.19-.57-1.02-1.54-1.53-2.88-1.53-.96,0-1.77.35-2.43,1.05-.65.7-1,1.6-1.03,2.68h6.93Z"/>
        <path class="cls-2" d="M319.73,50.85c.49-.07.81-.26.98-.61.09-.19.14-.46.14-.82,0-.73-.26-1.25-.77-1.58-.51-.32-1.25-.49-2.19-.49-1.1,0-1.89.3-2.35.9-.26.33-.43.82-.5,1.48h-1.97c.04-1.56.54-2.64,1.51-3.24s2.09-.91,3.36-.91c1.48,0,2.68.28,3.61.84.92.57,1.37,1.44,1.37,2.63v7.25c0,.22.05.4.14.53.09.13.28.2.57.2.09,0,.2,0,.32-.02.12-.01.24-.03.38-.05v1.56c-.33.09-.58.15-.75.18-.17.03-.41.03-.71.03-.73,0-1.26-.26-1.59-.78-.17-.28-.3-.66-.36-1.16-.43.57-1.05,1.05-1.86,1.47-.8.42-1.69.63-2.67.63-1.17,0-2.12-.36-2.86-1.06-.74-.71-1.11-1.6-1.11-2.66,0-1.17.36-2.07,1.09-2.71.73-.64,1.68-1.03,2.87-1.19l3.37-.42h0ZM315.28,56.56c.45.36.98.53,1.59.53.74,0,1.46-.17,2.16-.51,1.17-.57,1.76-1.5,1.76-2.8v-1.7c-.26.16-.59.3-1,.42-.41.11-.8.18-1.19.24l-1.28.16c-.76.1-1.34.26-1.73.48-.65.37-.98.96-.98,1.76,0,.6.22,1.08.67,1.43h0Z"/>
        <path class="cls-2" d="M326.37,45.88h2.01v1.79c.59-.74,1.23-1.27,1.89-1.59s1.4-.48,2.22-.48c1.79,0,2.99.63,3.62,1.87.34.68.51,1.65.51,2.93v8.07h-2.15v-7.93c0-.77-.11-1.38-.34-1.86-.38-.78-1.06-1.17-2.04-1.17-.5,0-.91.05-1.23.15-.58.17-1.09.52-1.53,1.03-.35.42-.58.84-.69,1.29s-.16,1.07-.16,1.9v6.59h-2.12v-12.58h0Z"/>
        <path class="cls-2" d="M346.82,41.2h6.9c2.34,0,4.16.84,5.45,2.52,1.15,1.52,1.73,3.47,1.73,5.84,0,1.83-.34,3.49-1.02,4.97-1.2,2.62-3.26,3.92-6.18,3.92h-6.87v-17.26h0ZM353.26,56.47c.77,0,1.41-.08,1.9-.24.89-.3,1.61-.9,2.18-1.76.45-.7.78-1.59.98-2.68.11-.65.17-1.25.17-1.81,0-2.14-.42-3.8-1.25-4.98-.83-1.18-2.17-1.77-4.01-1.77h-4.05v13.25h4.08Z"/>
        <path class="cls-2" d="M363.81,41.2h2.15v2.4h-2.15v-2.4h0ZM363.81,45.94h2.15v12.52h-2.15v-12.52h0Z"/>
        <path class="cls-2" d="M376.15,46.38c.4.28.8.67,1.22,1.2v-1.59h1.95v11.44c0,1.6-.24,2.86-.71,3.78-.88,1.71-2.52,2.56-4.95,2.56-1.35,0-2.48-.3-3.41-.91-.92-.61-1.44-1.56-1.55-2.85h2.15c.1.57.3,1,.61,1.31.47.47,1.23.71,2.24.71,1.61,0,2.67-.57,3.16-1.71.3-.67.43-1.88.41-3.61-.42.65-.93,1.12-1.52,1.43-.59.32-1.38.47-2.35.47-1.36,0-2.54-.48-3.57-1.45s-1.53-2.56-1.53-4.8c0-2.11.51-3.75,1.54-4.94,1.03-1.18,2.27-1.77,3.72-1.77,1,0,1.86.24,2.59.72h0ZM376.4,48.65c-.64-.75-1.45-1.13-2.45-1.13-1.48,0-2.49.7-3.04,2.09-.29.74-.43,1.72-.43,2.93,0,1.42.28,2.5.86,3.24s1.34,1.11,2.31,1.11c1.51,0,2.58-.69,3.19-2.06.34-.78.51-1.68.51-2.72.01-1.55-.31-2.7-.95-3.46h0Z"/>
        <path class="cls-2" d="M382.53,41.2h2.15v2.4h-2.15v-2.4h0ZM382.53,45.94h2.15v12.52h-2.15v-12.52h0Z"/>
        <path class="cls-2" d="M388.3,42.37h2.14v3.51h2.01v1.73h-2.01v8.21c0,.44.15.73.45.88.16.09.43.13.82.13.11,0,.21,0,.33,0s.26-.02.41-.04v1.68c-.24.07-.49.12-.76.15-.26.03-.55.05-.85.05-.99,0-1.65-.25-2.01-.76s-.53-1.16-.53-1.97v-8.33h-1.71v-1.73h1.71v-3.51h0Z"/>
        <path class="cls-2" d="M401.3,50.85c.49-.07.81-.26.98-.61.09-.19.14-.46.14-.82,0-.73-.26-1.25-.77-1.58-.51-.32-1.25-.49-2.19-.49-1.1,0-1.89.3-2.35.9-.26.33-.43.82-.51,1.48h-1.97c.04-1.56.54-2.64,1.51-3.24s2.09-.91,3.36-.91c1.48,0,2.68.28,3.61.84.92.57,1.37,1.44,1.37,2.63v7.25c0,.22.05.4.14.53.09.13.28.2.57.2.09,0,.2,0,.32-.02s.24-.03.38-.05v1.56c-.33.09-.58.15-.75.18-.17.03-.41.03-.71.03-.72,0-1.26-.26-1.59-.78-.17-.28-.3-.66-.36-1.16-.43.57-1.05,1.05-1.86,1.47-.8.42-1.69.63-2.67.63-1.17,0-2.12-.36-2.86-1.06-.74-.71-1.11-1.6-1.11-2.66,0-1.17.36-2.07,1.09-2.71.72-.64,1.68-1.03,2.87-1.19l3.37-.42h0ZM396.85,56.56c.45.36.98.53,1.59.53.74,0,1.46-.17,2.16-.51,1.17-.57,1.76-1.5,1.76-2.8v-1.7c-.26.16-.59.3-1,.42-.41.11-.8.18-1.19.24l-1.28.16c-.76.1-1.34.26-1.73.48-.65.37-.98.96-.98,1.76,0,.6.22,1.08.67,1.43h0Z"/>
        <polygon class="cls-2" points="408 41.2 410.12 41.2 410.12 58.46 408 58.46 408 41.2"/>
        <path class="cls-2" d="M151.39,70.08h3.35l4.96,14.59,4.93-14.59h3.33v17.26h-2.23v-10.18c0-.35,0-.94.03-1.75.01-.82.03-1.69.03-2.62l-4.93,14.55h-2.31l-4.98-14.55v.53c0,.42.01,1.07.03,1.93.03.86.03,1.5.03,1.91v10.18h-2.23v-17.26h0Z"/>
        <path class="cls-2" d="M178.98,75.1c.83.42,1.47.96,1.9,1.63.42.63.7,1.38.84,2.22.13.58.18,1.5.18,2.77h-9.15c.04,1.28.34,2.31.9,3.08s1.42,1.16,2.6,1.16c1.09,0,1.97-.37,2.62-1.1.36-.43.63-.92.78-1.48h2.08c-.05.46-.24.98-.55,1.55-.31.57-.65,1.03-1.03,1.39-.64.63-1.43,1.05-2.37,1.27-.51.13-1.07.18-1.71.18-1.56,0-2.87-.57-3.95-1.71s-1.62-2.74-1.62-4.79.55-3.66,1.63-4.92c1.09-1.26,2.51-1.89,4.27-1.89.88,0,1.74.21,2.58.63h0ZM179.74,80.04c-.09-.92-.28-1.65-.59-2.19-.57-1.02-1.54-1.53-2.88-1.53-.96,0-1.77.35-2.42,1.05-.65.7-1,1.59-1.03,2.67h6.93Z"/>
        <path class="cls-2" d="M191.5,75.14c.38.24.8.65,1.28,1.23v-6.35h2.03v17.31h-1.9v-1.75c-.49.78-1.07,1.34-1.75,1.68s-1.44.51-2.31.51c-1.4,0-2.6-.59-3.63-1.77-1.02-1.18-1.54-2.75-1.54-4.71,0-1.83.47-3.42,1.4-4.77s2.27-2.02,3.99-2.02c.98,0,1.78.21,2.43.62h0ZM186.78,84.57c.57.91,1.48,1.36,2.74,1.36.98,0,1.77-.42,2.41-1.26.63-.84.94-2.05.94-3.63s-.32-2.77-.97-3.53c-.65-.76-1.44-1.15-2.39-1.15-1.06,0-1.92.41-2.58,1.22-.66.82-.99,2.01-.99,3.59,0,1.35.28,2.48.84,3.39h0Z"/>
        <path class="cls-2" d="M197.97,70.08h2.15v2.4h-2.15v-2.4h0ZM197.97,74.81h2.15v12.52h-2.15v-12.52h0Z"/>
        <path class="cls-2" d="M210.06,79.72c.49-.07.81-.26.98-.61.09-.19.14-.46.14-.81,0-.73-.26-1.25-.77-1.58-.51-.32-1.25-.49-2.19-.49-1.1,0-1.89.3-2.35.9-.26.33-.43.82-.51,1.48h-1.97c.04-1.56.54-2.64,1.51-3.25.97-.61,2.09-.91,3.36-.91,1.48,0,2.68.28,3.61.84.92.57,1.37,1.44,1.37,2.63v7.25c0,.22.05.4.14.53.09.13.28.2.57.2.09,0,.2,0,.32-.02.12-.01.24-.03.38-.05v1.56c-.33.09-.58.15-.75.18-.17.03-.41.03-.71.03-.73,0-1.26-.26-1.59-.78-.17-.28-.3-.66-.36-1.17-.43.57-1.05,1.05-1.86,1.47-.8.42-1.69.62-2.67.62-1.17,0-2.12-.36-2.86-1.06-.74-.71-1.11-1.6-1.11-2.66,0-1.17.36-2.07,1.09-2.71.73-.64,1.68-1.03,2.87-1.19l3.37-.41h0ZM205.6,85.43c.45.36.98.53,1.59.53.74,0,1.46-.17,2.16-.51,1.17-.57,1.76-1.5,1.76-2.8v-1.7c-.26.16-.59.3-1,.42-.4.11-.8.19-1.19.24l-1.28.16c-.76.1-1.34.26-1.73.48-.65.37-.98.96-.98,1.76,0,.6.22,1.08.67,1.43h0Z"/>
        <path class="cls-2" d="M237.87,72.54c1.15,1.53,1.71,3.48,1.71,5.86,0,2.58-.65,4.72-1.96,6.43-1.54,2-3.72,3.01-6.56,3.01-2.66,0-4.74-.88-6.26-2.63-1.36-1.69-2.03-3.83-2.03-6.41,0-2.33.58-4.33,1.74-5.99,1.49-2.13,3.69-3.2,6.6-3.2,3.05,0,5.3.98,6.76,2.94h0ZM235.82,83.54c.92-1.48,1.38-3.18,1.38-5.09,0-2.03-.53-3.66-1.6-4.9-1.06-1.24-2.51-1.86-4.35-1.86s-3.24.61-4.37,1.84c-1.13,1.23-1.69,3.04-1.69,5.42,0,1.91.48,3.53,1.45,4.84s2.54,1.97,4.71,1.97c2.06,0,3.55-.74,4.47-2.21h0Z"/>
        <path class="cls-2" d="M241.92,70.02h2.06v6.26c.46-.6,1.02-1.06,1.66-1.38.65-.32,1.34-.47,2.1-.47,1.58,0,2.85.54,3.83,1.61.98,1.07,1.47,2.66,1.47,4.77,0,1.99-.48,3.64-1.45,4.96-.97,1.32-2.31,1.97-4.02,1.97-.96,0-1.77-.23-2.43-.69-.4-.28-.81-.71-1.26-1.32v1.61h-1.95v-17.31h0ZM250,84.51c.57-.91.86-2.11.86-3.59,0-1.32-.28-2.42-.86-3.29-.57-.87-1.41-1.31-2.52-1.31-.97,0-1.81.36-2.54,1.07s-1.09,1.89-1.09,3.53c0,1.18.15,2.14.45,2.88.56,1.38,1.6,2.08,3.12,2.08,1.15,0,2-.46,2.57-1.36h0Z"/>
        <path class="cls-2" d="M256.73,83.39c.07.71.24,1.25.54,1.62.54.68,1.48,1.02,2.83,1.02.8,0,1.5-.17,2.11-.51.61-.34.91-.87.91-1.58,0-.54-.24-.95-.73-1.23-.31-.17-.92-.37-1.84-.6l-1.71-.42c-1.09-.26-1.89-.57-2.41-.89-.92-.57-1.38-1.36-1.38-2.37,0-1.19.44-2.16,1.31-2.89.87-.74,2.04-1.11,3.51-1.11,1.92,0,3.31.55,4.15,1.67.53.71.79,1.46.78,2.28h-2c-.04-.47-.21-.91-.51-1.3-.49-.55-1.36-.83-2.58-.83-.82,0-1.44.15-1.86.45s-.63.71-.63,1.21c0,.55.28.98.83,1.31.32.2.79.37,1.41.51l1.42.34c1.55.37,2.58.73,3.11,1.07.82.54,1.23,1.39,1.23,2.55s-.43,2.09-1.29,2.9c-.86.81-2.17,1.22-3.93,1.22-1.9,0-3.24-.43-4.03-1.27-.79-.85-1.21-1.9-1.27-3.16h2.04Z"/>
        <path class="cls-2" d="M275.28,75.1c.83.42,1.47.96,1.9,1.63.42.63.7,1.38.84,2.22.13.58.18,1.5.18,2.77h-9.15c.04,1.28.34,2.31.9,3.08.56.77,1.42,1.16,2.6,1.16,1.09,0,1.97-.37,2.62-1.1.36-.43.63-.92.78-1.48h2.08c-.05.46-.24.98-.55,1.55-.31.57-.65,1.03-1.03,1.39-.64.63-1.42,1.05-2.37,1.27-.51.13-1.07.18-1.71.18-1.56,0-2.87-.57-3.95-1.71s-1.62-2.74-1.62-4.79.55-3.66,1.63-4.92c1.09-1.26,2.51-1.89,4.27-1.89.88,0,1.73.21,2.57.63h0ZM276.03,80.04c-.09-.92-.28-1.65-.59-2.19-.57-1.02-1.54-1.53-2.88-1.53-.96,0-1.77.35-2.43,1.05-.65.7-1,1.59-1.03,2.67h6.93Z"/>
        <path class="cls-2" d="M280.94,74.75h2.01v2.18c.16-.42.57-.94,1.21-1.54.64-.61,1.38-.91,2.22-.91.04,0,.11,0,.2.01.09,0,.26.03.48.05v2.23c-.13-.03-.24-.04-.35-.05-.11,0-.22-.01-.35-.01-1.07,0-1.89.34-2.46,1.03-.57.69-.86,1.48-.86,2.37v7.24h-2.12v-12.59h0Z"/>
        <polygon class="cls-2" points="289.94 74.75 293.3 84.99 296.8 74.75 299.11 74.75 294.37 87.33 292.12 87.33 287.48 74.75 289.94 74.75"/>
        <path class="cls-2" d="M307.66,79.72c.49-.07.81-.26.98-.61.09-.19.14-.46.14-.81,0-.73-.26-1.25-.77-1.58-.51-.32-1.25-.49-2.19-.49-1.1,0-1.89.3-2.35.9-.26.33-.43.82-.5,1.48h-1.97c.04-1.56.54-2.64,1.51-3.25.97-.61,2.09-.91,3.36-.91,1.48,0,2.68.28,3.61.84.92.57,1.37,1.44,1.37,2.63v7.25c0,.22.05.4.14.53.09.13.28.2.57.2.09,0,.2,0,.32-.02.12-.01.24-.03.38-.05v1.56c-.33.09-.58.15-.75.18-.17.03-.41.03-.71.03-.73,0-1.26-.26-1.59-.78-.17-.28-.3-.66-.36-1.17-.43.57-1.05,1.05-1.86,1.47-.8.42-1.69.62-2.67.62-1.17,0-2.12-.36-2.86-1.06-.74-.71-1.11-1.6-1.11-2.66,0-1.17.36-2.07,1.09-2.71.73-.64,1.68-1.03,2.87-1.19l3.37-.41h0ZM303.22,85.43c.45.36.98.53,1.59.53.74,0,1.46-.17,2.16-.51,1.17-.57,1.76-1.5,1.76-2.8v-1.7c-.26.16-.59.3-1,.42-.4.11-.8.19-1.19.24l-1.28.16c-.76.1-1.34.26-1.73.48-.65.37-.98.96-.98,1.76,0,.6.22,1.08.67,1.43h0Z"/>
        <path class="cls-2" d="M314.72,71.24h2.14v3.51h2.01v1.73h-2.01v8.21c0,.44.15.73.45.88.16.09.44.13.82.13.11,0,.21,0,.33,0,.12,0,.26-.02.41-.04v1.68c-.24.07-.49.12-.76.15-.26.03-.55.05-.85.05-.99,0-1.65-.25-2.01-.76-.35-.5-.53-1.16-.53-1.96v-8.33h-1.7v-1.73h1.7v-3.52h0Z"/>
        <path class="cls-2" d="M330.11,76.01c1.11,1.08,1.67,2.67,1.67,4.77s-.49,3.7-1.47,5.02c-.98,1.32-2.5,1.98-4.56,1.98-1.72,0-3.08-.59-4.09-1.75s-1.52-2.74-1.52-4.71c0-2.12.53-3.8,1.6-5.05,1.07-1.25,2.5-1.88,4.29-1.88,1.61,0,2.97.54,4.09,1.62h0ZM328.79,84.37c.51-1.06.77-2.24.77-3.54,0-1.17-.18-2.13-.56-2.86-.59-1.16-1.6-1.74-3.05-1.74-1.28,0-2.21.49-2.79,1.48-.58.99-.87,2.18-.87,3.57s.29,2.45.87,3.35c.58.89,1.5,1.34,2.77,1.34,1.39,0,2.34-.53,2.85-1.59h0Z"/>
        <path class="cls-2" d="M334.42,74.75h2.01v2.18c.16-.42.57-.94,1.21-1.54.64-.61,1.38-.91,2.22-.91.04,0,.11,0,.2.01.09,0,.26.03.48.05v2.23c-.13-.03-.24-.04-.35-.05-.11,0-.22-.01-.35-.01-1.07,0-1.89.34-2.45,1.03-.57.69-.86,1.48-.86,2.37v7.24h-2.12v-12.59h0Z"/>
        <path class="cls-2" d="M350.24,74.75h2.34c-.3.8-.96,2.65-1.98,5.52-.77,2.16-1.41,3.93-1.92,5.29-1.22,3.21-2.08,5.17-2.58,5.87s-1.36,1.05-2.58,1.05c-.3,0-.53-.01-.69-.03-.16-.03-.36-.07-.59-.13v-1.92c.37.1.63.16.8.19s.31.03.44.03c.39,0,.68-.07.86-.19.18-.13.34-.29.46-.47.04-.07.18-.38.42-.96.24-.58.42-1.01.53-1.29l-4.65-12.95h2.4l3.37,10.25,3.39-10.25h0Z"/>
      </g>
    </g>
  </g>
</svg>